<svg xmlns="http://www.w3.org/2000/svg" width="48" height="48" viewBox="0 0 48 48">
    <defs>
        <filter id="4xlozudeaa">
            <feColorMatrix in="SourceGraphic" values="0 0 0 0 0.764706 0 0 0 0 0.058824 0 0 0 0 0.109804 0 0 0 1.000000 0"/>
        </filter>
    </defs>
    <g fill="none" fill-rule="evenodd">
        <g filter="url(#4xlozudeaa)" transform="translate(-600.000000, -123.000000)">
            <g>
                <g fill="#000" fill-rule="nonzero">
                    <path d="M46.874 16.5H41.26l-1.56-3.9C38.098 8.59 34.272 6 29.953 6H18.047c-4.318 0-8.145 2.59-9.75 6.6l-1.56 3.9H1.127c-.732 0-1.27.688-1.091 1.398l.562 2.25c.125.5.575.852 1.091.852H3.57c-1.26 1.1-2.07 2.698-2.07 4.5V30c0 1.511.577 2.875 1.5 3.93V39c0 1.656 1.343 3 3 3h3c1.657 0 3-1.344 3-3v-3h24v3c0 1.656 1.343 3 3 3h3c1.656 0 3-1.344 3-3v-5.07c.922-1.054 1.5-2.418 1.5-3.93v-4.5c0-1.802-.811-3.4-2.07-4.5h1.882c.517 0 .967-.352 1.091-.852l.563-2.25c.177-.71-.36-1.398-1.092-1.398zm-33.006-1.672C14.552 13.12 16.206 12 18.047 12h11.906c1.84 0 3.495 1.12 4.178 2.828L36 19.5H12l1.868-4.672zM9 29.981c-1.8 0-3-1.196-3-2.99C6 25.195 7.2 24 9 24s4.5 2.691 4.5 4.486c0 1.794-2.7 1.495-4.5 1.495zm30 0c-1.8 0-4.5.3-4.5-1.495C34.5 26.69 37.2 24 39 24c1.8 0 3 1.196 3 2.99 0 1.795-1.2 2.991-3 2.991z" transform="translate(600.000000, 123.000000) translate(-0.000000, 0.000138)"/>
                </g>
            </g>
        </g>
    </g>
</svg>
