<svg xmlns="http://www.w3.org/2000/svg" width="48" height="48" viewBox="0 0 48 48">
    <defs>
        <filter id="4kryxhrwaa">
            <feColorMatrix in="SourceGraphic" values="0 0 0 0 1.000000 0 0 0 0 0.803906 0 0 0 0 0.253316 0 0 0 1.000000 0"/>
        </filter>
    </defs>
    <g fill="none" fill-rule="evenodd">
        <g filter="url(#4kryxhrwaa)" transform="translate(-885.000000, -106.000000)">
            <g>
                <g fill="#000" fill-rule="nonzero">
                    <path d="M24 36c6.627 0 12-5.373 12-12s-5.373-12-12-12-12 5.373-12 12 5.373 12 12 12zm0-36c.828 0 1.5.672 1.5 1.5v6c0 .828-.672 1.5-1.5 1.5s-1.5-.672-1.5-1.5v-6c0-.828.672-1.5 1.5-1.5zm0 39c.828 0 1.5.672 1.5 1.5v6c0 .828-.672 1.5-1.5 1.5s-1.5-.672-1.5-1.5v-6c0-.828.672-1.5 1.5-1.5zm24-15c0 .828-.672 1.5-1.5 1.5h-6c-.828 0-1.5-.672-1.5-1.5s.672-1.5 1.5-1.5h6c.828 0 1.5.672 1.5 1.5zM9 24c0 .828-.672 1.5-1.5 1.5h-6C.672 25.5 0 24.828 0 24s.672-1.5 1.5-1.5h6c.828 0 1.5.672 1.5 1.5zM40.971 7.029c.586.586.586 1.535 0 2.121l-4.242 4.245c-.38.379-.932.527-1.45.387-.518-.139-.922-.544-1.06-1.062-.139-.518.01-1.07.389-1.449l4.242-4.242c.586-.586 1.535-.586 2.121 0zM13.392 34.608c.586.586.586 1.535 0 2.121L9.15 40.971c-.589.568-1.524.56-2.103-.018-.578-.579-.586-1.514-.018-2.103l4.242-4.242c.586-.586 1.535-.586 2.121 0zm27.579 6.363c-.586.586-1.535.586-2.121 0l-4.242-4.242c-.568-.589-.56-1.524.018-2.103.579-.578 1.514-.586 2.103-.018l4.242 4.242c.586.586.586 1.535 0 2.121zM13.392 13.395c-.586.586-1.535.586-2.121 0L7.029 9.15c-.39-.377-.546-.934-.409-1.459.137-.524.547-.934 1.071-1.071.525-.137 1.082.02 1.459.409l4.242 4.242c.282.281.44.664.44 1.062s-.158.78-.44 1.062z" transform="translate(885.000000, 106.000000) translate(0.000000, -0.000000)"/>
                </g>
            </g>
        </g>
    </g>
</svg>
