<svg xmlns="http://www.w3.org/2000/svg" width="48" height="48" viewBox="0 0 48 48">
    <defs>
        <filter id="9zp6h2yaqa">
            <feColorMatrix in="SourceGraphic" values="0 0 0 0 0.407843 0 0 0 0 0.709804 0 0 0 0 0.000000 0 0 0 1.000000 0"/>
        </filter>
    </defs>
    <g fill="none" fill-rule="evenodd">
        <g filter="url(#9zp6h2yaqa)" transform="translate(-1168.000000, -123.000000)">
            <g>
                <g fill="#000" fill-rule="nonzero">
                    <path d="M25.248.669C24.97.252 24.501.001 24 .001s-.97.25-1.248.668l-9 13.5c-.306.46-.335 1.052-.074 1.539.261.487.77.792 1.322.792h.294l-6.066 9.705c-.289.462-.304 1.045-.04 1.522.264.477.767.773 1.312.773h.573l-4.914 9.828c-.233.465-.209 1.017.065 1.46.273.443.756.712 1.276.712H21V48h6v-7.5h13.5c.52 0 1.003-.27 1.276-.712.274-.443.298-.995.065-1.46L36.93 28.5h.573c.545 0 1.048-.296 1.312-.773.264-.477.249-1.06-.04-1.522L32.706 16.5H33c.553 0 1.06-.305 1.322-.792.26-.487.232-1.079-.074-1.539l-9-13.5z" transform="translate(1168.000000, 123.000000) translate(0.000000, -0.000000)"/>
                </g>
            </g>
        </g>
    </g>
</svg>
